<?xml version="1.0" encoding="utf-8"?><!DOCTYPE svg PUBLIC "-//W3C//DTD SVG 1.1//EN" "http://www.w3.org/Graphics/SVG/1.1/DTD/svg11.dtd"><svg version="1.1" xmlns="http://www.w3.org/2000/svg" xmlns:xlink="http://www.w3.org/1999/xlink" viewBox="0 0 900 750" width="900" height="750"><g class="svg-logo"><g class="base"><g class="logo-element x"><line fill="none" stroke="#000" stroke-width="30" x1="252.823" y1="177.823" x2="647.178" y2="572.176"></line><line fill="none" stroke="#000" stroke-width="30" x1="252.823" y1="572.176" x2="647.178" y2="177.823"></line></g></g><g class="text"><g text-anchor="middle" transform="translate(453,407)" class="logo-element large-x"><path d="M2.50-150L32.60-150C57.20-150 71-163.10 71-185.90C71-205 57.20-219.90 33-219.90L2.50-219.90L2.50-206.70L8.70-206.70L8.70-163.30L2.50-163.30ZM29.20-163.30L29.20-206.70L33-206.70C43.60-206.70 48-196.60 48-185.90C48-173.40 43.60-163.50 33-163.30Z" fill="#000" transform="translate(-35,14)"></path><path d="M152.50 0L170 0L171.10-7.70C174.90-3.20 181.90 1.50 192 1.50C203.90 1.50 218.50-4.10 218.50-19.70C218.50-43.20 178.90-40.80 178.90-51.10C178.90-54.60 182.90-56.40 185.80-56.40C192.80-56.40 198.60-52.20 198.60-44.80L216.70-44.80L216.70-69.90L199.50-69.90L198.50-61.50C194.50-69 186-71.70 177.60-71.70C167.80-71.70 153.80-65 153.80-50.20C153.80-24.70 192.20-28 192.20-20.20C192.20-16 187.20-15.20 183.70-15.20C179.50-15.40 171.10-16.80 171.10-25.20L152.50-25.20Z" fill="#000" transform="translate(-34,15)"></path><path d="M36.90 111.60C36.50 109.90 34.40 105.40 33.80 103.50L28 92.90L33.20 92.90L33.20 80.10L-1 80.10L-1 92.90L3.90 92.90L23.30 125.20L23.30 137L17.60 137L17.60 150L49.60 150L49.60 137L44 137L44 125.40L62.50 92.90L67.90 92.90L67.90 80.10L41 80.10L41 92.90L46.50 92.90L41 103C39.90 105.40 37.70 109.60 37.30 111.60Z" fill="#000" transform="translate(-35,14)"></path><path d="M-69.20 0L-69.20-13.10L-76.20-13.10L-93.90-69.90L-132.30-69.90L-132.30-57L-128.20-57L-141.70-13.10L-148.50-13.10L-148.50 0L-116.70 0L-116.70-13.10L-124.50-13.10L-122.40-19.90L-101.90-19.90L-99.80-13.10L-109.30-13.10L-109.30 0ZM-118.70-31.90L-112.20-53.50L-105.60-31.90Z" fill="#000" transform="translate(-41,14)"></path></g></g></g></svg>